<?xml version="1.0" encoding="UTF-8" standalone="no"?>
<svg
   width="256mm"
   height="96mm"
   version="1.1"
   id="svg1"
   viewBox="0 0 256 96"
   sodipodi:docname="extract.svg"
   inkscape:export-filename="../../components/layers/Extract.svg"
   inkscape:export-xdpi="96"
   inkscape:export-ydpi="96"
   inkscape:version="1.3.2 (1:1.3.2+202311252150+091e20ef0f)"
   xmlns:inkscape="http://www.inkscape.org/namespaces/inkscape"
   xmlns:sodipodi="http://sodipodi.sourceforge.net/DTD/sodipodi-0.dtd"
   xmlns="http://www.w3.org/2000/svg"
   xmlns:svg="http://www.w3.org/2000/svg">
  <defs
     id="defs1" />
  <sodipodi:namedview
     id="namedview1"
     pagecolor="#505050"
     bordercolor="#ffffff"
     borderopacity="1"
     inkscape:showpageshadow="0"
     inkscape:pageopacity="0"
     inkscape:pagecheckerboard="1"
     inkscape:deskcolor="#505050"
     inkscape:document-units="mm"
     showborder="false"
     inkscape:zoom="0.53800106"
     inkscape:cx="502.78712"
     inkscape:cy="332.7131"
     inkscape:window-width="1656"
     inkscape:window-height="1016"
     inkscape:window-x="72"
     inkscape:window-y="27"
     inkscape:window-maximized="1"
     inkscape:current-layer="svg1" />
  <rect
     style="fill:#a56b47;fill-opacity:1;fill-rule:evenodd;stroke:none;stroke-width:0;stroke-dasharray:none"
     id="rect1"
     width="256"
     height="96"
     x="4.4408921e-16"
     y="0"
     ry="0.098083183" />
  <path
     style="fill:#a56b47;fill-rule:evenodd;stroke:#0b7c9a;stroke-width:0;fill-opacity:1"
     d="M 256,96 287.99999,47.999999 256,0 v 96"
     id="path9" />
  <rect
     style="fill:#a56b47;fill-opacity:1;fill-rule:evenodd;stroke:#0b7c9a;stroke-width:0"
     id="rect9"
     width="4.0548058"
     height="85.963326"
     x="254.29713"
     y="3.6508291"
     ry="0.1" />
  <text
     class="animate-text-{animate}"
     xml:space="preserve"
     style="font-style:normal;font-variant:normal;font-weight:normal;font-stretch:normal;font-size:33.7767px;font-family:'DejaVu Serif';-inkscape-font-specification:'DejaVu Serif, Normal';font-variant-ligatures:normal;font-variant-caps:normal;font-variant-numeric:normal;font-variant-east-asian:normal;letter-spacing:-0.132292px;word-spacing:-2.38125px;fill:#000000;fill-opacity:1;fill-rule:evenodd;stroke:none;stroke-width:0;stroke-dasharray:none"
     x="66.995193"
     y="54.974094"
     id="text1"><tspan
       id="tspan1"
       style="font-style:normal;font-variant:normal;font-weight:normal;font-stretch:normal;font-size:33.7767px;font-family:'DejaVu Serif';-inkscape-font-specification:'DejaVu Serif, Normal';font-variant-ligatures:normal;font-variant-caps:normal;font-variant-numeric:normal;font-variant-east-asian:normal;fill:#000000;fill-opacity:1;stroke-width:0"
       x="66.995193"
       y="54.974094">extract</tspan></text>
  <g
     id="g11">
    <path
       style="fill:#787b80;fill-opacity:1;fill-rule:evenodd;stroke:none;stroke-width:0;stroke-dasharray:none"
       d="m 35.006343,81.691667 27.438331,3.706511 23.276131,-0.281215 c 0,0 5.585849,-1.496608 9.870861,-5.00334 l 1.392757,-7.562275 -18.223277,-3.792354 c 0,0 -11.531739,0.608438 -15.491495,1.828764 L 42.199077,68.176959 Z"
       id="path4" />
    <path
       style="fill:#5b5e63;fill-opacity:1;fill-rule:evenodd;stroke:none;stroke-width:0;stroke-dasharray:none"
       d="m 57.242834,84.695487 16.824285,-2.746407 11.622928,-4.809733 10.41608,0.18089 -0.514461,2.793386 -9.870863,5.00334 -23.276129,0.281215 z"
       id="path6" />
    <path
       style="fill:#4c5051;fill-opacity:1;fill-rule:evenodd;stroke:none;stroke-width:0;stroke-dasharray:none"
       d="m 71.504912,85.288714 24.530508,-7.584553 -0.443754,2.409462 c 0,0 -4.921626,3.7684 -9.870863,5.00334 z"
       id="path5" />
  </g>
  <g
     id="g3">
    <path
       style="fill:#787b80;fill-opacity:1;fill-rule:evenodd;stroke:none;stroke-width:0;stroke-dasharray:none"
       d="m 8.2509707,69.991093 3.4120513,10.061586 10.006695,3.557254 c 0,0 23.318176,0.374832 27.78928,1.295291 l 4.499359,-3.58143 2.827773,-7.515646 c 0,0 -9.492286,-10.905547 -10.561592,-15.549129 L 21.885292,55.862693 Z"
       id="path1" />
    <path
       style="fill:#5b5e63;fill-opacity:1;fill-rule:evenodd;stroke:none;stroke-width:0;stroke-dasharray:none"
       d="m 23.950788,83.652608 3.865318,-3.798221 13.891085,-2.343269 11.652411,-7.86017 3.426526,4.157199 -2.827774,7.515646 -4.499358,3.581429 z"
       id="path3" />
    <path
       style="fill:#4c5051;fill-opacity:1;fill-rule:evenodd;stroke:none;stroke-width:0;stroke-dasharray:none"
       d="m 29.957855,83.795149 16.853545,-2.374685 8.837348,-8.952934 1.13738,1.340617 -2.827774,7.515646 -4.499358,3.581429 z"
       id="path2" />
  </g>
  <g
     id="g12"
     transform="translate(0,-3.888288)"
     class="animate-drill-{animate}">
    <path
       style="fill:#5b5e63;fill-opacity:1;fill-rule:evenodd;stroke:none;stroke-width:0;stroke-dasharray:none"
       d="m 225.89723,1.6170645 -14.97688,5.960594 v 9.8034825 l 14.97273,-5.958939 z"
       id="path7" />
    <path
       style="fill:#5b5e63;fill-opacity:1;fill-rule:evenodd;stroke:none;stroke-width:0;stroke-dasharray:none"
       d="m 225.89724,-17.247324 -14.97688,5.960594 v 9.8034835 l 14.97273,-5.958939 z"
       id="path7-3" />
    <path
       style="fill:#5b5e63;fill-opacity:1;fill-rule:evenodd;stroke:none;stroke-width:0;stroke-dasharray:none"
       d="m 225.89725,-36.111712 -14.97688,5.960594 v 9.803483 l 14.97273,-5.958939 z"
       id="path7-3-9" />
    <path
       style="fill:#5b5e63;fill-opacity:1;fill-rule:evenodd;stroke:none;stroke-width:0;stroke-dasharray:none"
       d="m 225.89723,20.481451 -14.97688,5.960594 v 9.803483 l 14.97273,-5.958939 z"
       id="path7-4" />
    <path
       style="fill:#5b5e63;fill-opacity:1;fill-rule:evenodd;stroke:none;stroke-width:0;stroke-dasharray:none"
       d="m 225.89723,39.345839 -14.97688,5.960594 v 9.803484 l 14.97273,-5.958939 z"
       id="path7-4-0" />
    <path
       style="fill:#282828;fill-opacity:1;fill-rule:evenodd;stroke:none;stroke-width:0;stroke-dasharray:none"
       d="m 210.92035,17.38114 c 0,0 2.74389,0.222123 2.74389,7.968871 l 12.23299,-4.86856 c 0,0 -2.40765,0.242562 -2.40765,-8.102688"
       id="path11" />
    <path
       style="fill:#282828;fill-opacity:1;fill-rule:evenodd;stroke:none;stroke-width:0;stroke-dasharray:none"
       d="m 210.92035,36.245528 c 0,0 2.74389,0.222123 2.74389,7.968871 l 12.23299,-4.86856 c 0,0 -2.40765,0.242562 -2.40765,-8.102689"
       id="path11-4" />
    <path
       style="fill:#282828;fill-opacity:1;fill-rule:evenodd;stroke:none;stroke-width:0;stroke-dasharray:none"
       d="m 210.92036,-1.4832465 c 0,0 2.74388,0.222123 2.74388,7.968871 l 12.23299,-4.86856 c 0,0 -2.40764,0.242562 -2.40764,-8.102689"
       id="path11-4-9" />
    <path
       style="fill:#282828;fill-opacity:1;fill-rule:evenodd;stroke:none;stroke-width:0;stroke-dasharray:none"
       d="m 210.92037,-20.347635 c 0,0 2.74388,0.222123 2.74388,7.968871 l 12.23299,-4.86856 c 0,0 -2.40764,0.242562 -2.40764,-8.102689"
       id="path11-4-9-3" />
    <path
       style="fill:#282828;fill-opacity:1;fill-rule:evenodd;stroke:none;stroke-width:0;stroke-dasharray:none"
       d="m 210.92035,55.109916 9.11057,5.25999 5.69661,-5.696603 c 0,0 -2.24129,-1.058892 -2.24129,-4.564438"
       id="path12" />
  </g>
</svg>
